<svg width="181" height="52" viewBox="0 0 181 52" fill="none" xmlns="http://www.w3.org/2000/svg">
<path d="M63.2354 29.1504C63.2354 28.431 62.9814 27.8809 62.4736 27.5C61.9658 27.1107 61.0518 26.7044 59.7314 26.2812C58.4111 25.8496 57.3659 25.4264 56.5957 25.0117C54.4967 23.8776 53.4473 22.3499 53.4473 20.4287C53.4473 19.43 53.7266 18.5413 54.2852 17.7627C54.8522 16.9756 55.6605 16.362 56.71 15.9219C57.7679 15.4818 58.9528 15.2617 60.2646 15.2617C61.585 15.2617 62.7614 15.5029 63.7939 15.9854C64.8265 16.4593 65.6263 17.1322 66.1934 18.0039C66.7689 18.8757 67.0566 19.8659 67.0566 20.9746H63.248C63.248 20.1283 62.9814 19.4723 62.4482 19.0068C61.915 18.5329 61.166 18.2959 60.2012 18.2959C59.2702 18.2959 58.5465 18.4948 58.0303 18.8926C57.514 19.2819 57.2559 19.7982 57.2559 20.4414C57.2559 21.0423 57.5563 21.5459 58.1572 21.9521C58.7666 22.3584 59.6595 22.7393 60.8359 23.0947C63.0026 23.7464 64.5811 24.5547 65.5713 25.5195C66.5615 26.4844 67.0566 27.6862 67.0566 29.125C67.0566 30.7246 66.4515 31.9814 65.2412 32.8955C64.0309 33.8011 62.4017 34.2539 60.3535 34.2539C58.9316 34.2539 57.6367 33.9958 56.4688 33.4795C55.3008 32.9548 54.4079 32.2396 53.79 31.334C53.1807 30.4284 52.876 29.3789 52.876 28.1855H56.6973C56.6973 30.2253 57.916 31.2451 60.3535 31.2451C61.2591 31.2451 61.9658 31.0632 62.4736 30.6992C62.9814 30.3268 63.2354 29.8105 63.2354 29.1504ZM72.9854 21.7617C73.9587 20.5938 75.1816 20.0098 76.6543 20.0098C79.6335 20.0098 81.1442 21.7406 81.1865 25.2021V34H77.5176V25.3037C77.5176 24.5166 77.3483 23.9368 77.0098 23.5645C76.6712 23.1836 76.1084 22.9932 75.3213 22.9932C74.2464 22.9932 73.4678 23.4079 72.9854 24.2373V34H69.3164V14.5H72.9854V21.7617ZM87.8262 34H84.1445V20.2637H87.8262V34ZM83.9287 16.709C83.9287 16.1589 84.1107 15.7061 84.4746 15.3506C84.847 14.9951 85.3506 14.8174 85.9854 14.8174C86.6117 14.8174 87.111 14.9951 87.4834 15.3506C87.8558 15.7061 88.042 16.1589 88.042 16.709C88.042 17.2676 87.8516 17.7246 87.4707 18.0801C87.0983 18.4355 86.6032 18.6133 85.9854 18.6133C85.3675 18.6133 84.8682 18.4355 84.4873 18.0801C84.1149 17.7246 83.9287 17.2676 83.9287 16.709ZM97.1826 34.2539C95.1683 34.2539 93.5264 33.6361 92.2568 32.4004C90.9958 31.1647 90.3652 29.5186 90.3652 27.4619V27.1064C90.3652 25.7269 90.6318 24.4954 91.165 23.4121C91.6982 22.3203 92.4515 21.4824 93.4248 20.8984C94.4066 20.306 95.5238 20.0098 96.7764 20.0098C98.6553 20.0098 100.132 20.6022 101.207 21.7871C102.29 22.972 102.832 24.652 102.832 26.8271V28.3252H94.085C94.2035 29.2223 94.5589 29.9417 95.1514 30.4834C95.7523 31.0251 96.5098 31.2959 97.4238 31.2959C98.8372 31.2959 99.9417 30.7839 100.737 29.7598L102.54 31.7783C101.99 32.557 101.245 33.1663 100.306 33.6064C99.3662 34.0381 98.3252 34.2539 97.1826 34.2539ZM96.7637 22.9805C96.0358 22.9805 95.4434 23.2259 94.9863 23.7168C94.5378 24.2077 94.25 24.9102 94.123 25.8242H99.2266V25.5322C99.2096 24.7197 98.9896 24.0934 98.5664 23.6533C98.1432 23.2048 97.5423 22.9805 96.7637 22.9805ZM108.799 34H105.117V14.5H108.799V34ZM111.262 27.0303C111.262 24.889 111.74 23.1836 112.696 21.9141C113.661 20.6445 114.977 20.0098 116.645 20.0098C117.982 20.0098 119.086 20.5091 119.958 21.5078V14.5H123.64V34H120.326L120.148 32.54C119.234 33.6826 118.058 34.2539 116.619 34.2539C115.003 34.2539 113.703 33.6191 112.722 32.3496C111.748 31.0716 111.262 29.2985 111.262 27.0303ZM114.931 27.2969C114.931 28.5833 115.155 29.5693 115.604 30.2549C116.052 30.9404 116.704 31.2832 117.559 31.2832C118.693 31.2832 119.493 30.805 119.958 29.8486V24.4277C119.501 23.4714 118.71 22.9932 117.584 22.9932C115.815 22.9932 114.931 24.4277 114.931 27.2969Z" fill="#9B99E0"/>
<path d="M141.235 27.8428C141.091 29.8317 140.355 31.3975 139.026 32.54C137.706 33.6826 135.963 34.2539 133.796 34.2539C131.426 34.2539 129.56 33.4583 128.197 31.8672C126.843 30.2676 126.166 28.0755 126.166 25.291V24.1611C126.166 22.3838 126.479 20.818 127.105 19.4639C127.732 18.1097 128.625 17.0729 129.784 16.3535C130.952 15.6257 132.306 15.2617 133.847 15.2617C135.979 15.2617 137.698 15.833 139.001 16.9756C140.304 18.1182 141.058 19.722 141.261 21.7871H137.452C137.359 20.5938 137.025 19.7305 136.449 19.1973C135.882 18.6556 135.015 18.3848 133.847 18.3848C132.577 18.3848 131.625 18.8418 130.99 19.7559C130.364 20.6615 130.042 22.0706 130.025 23.9834V25.3799C130.025 27.3773 130.326 28.8372 130.927 29.7598C131.536 30.6823 132.493 31.1436 133.796 31.1436C134.972 31.1436 135.848 30.877 136.424 30.3438C137.008 29.8021 137.342 28.9684 137.427 27.8428H141.235ZM147.075 21.7617C148.049 20.5938 149.271 20.0098 150.744 20.0098C153.723 20.0098 155.234 21.7406 155.276 25.2021V34H151.607V25.3037C151.607 24.5166 151.438 23.9368 151.1 23.5645C150.761 23.1836 150.198 22.9932 149.411 22.9932C148.336 22.9932 147.558 23.4079 147.075 24.2373V34H143.406V14.5H147.075V21.7617ZM166.004 34C165.835 33.6699 165.712 33.2594 165.636 32.7686C164.747 33.7588 163.592 34.2539 162.17 34.2539C160.824 34.2539 159.707 33.8646 158.818 33.0859C157.938 32.3073 157.498 31.3255 157.498 30.1406C157.498 28.6849 158.035 27.5677 159.11 26.7891C160.194 26.0104 161.755 25.6169 163.795 25.6084H165.483V24.8213C165.483 24.1865 165.318 23.6787 164.988 23.2979C164.667 22.917 164.155 22.7266 163.452 22.7266C162.834 22.7266 162.348 22.8747 161.992 23.1709C161.645 23.4671 161.472 23.8734 161.472 24.3896H157.803C157.803 23.5941 158.048 22.8577 158.539 22.1807C159.03 21.5036 159.724 20.9746 160.621 20.5938C161.518 20.2044 162.525 20.0098 163.643 20.0098C165.335 20.0098 166.677 20.4372 167.667 21.292C168.666 22.1383 169.165 23.3317 169.165 24.8721V30.8262C169.174 32.1296 169.355 33.1156 169.711 33.7842V34H166.004ZM162.97 31.4482C163.511 31.4482 164.011 31.3298 164.468 31.0928C164.925 30.8473 165.263 30.5215 165.483 30.1152V27.7539H164.112C162.276 27.7539 161.298 28.3887 161.18 29.6582L161.167 29.874C161.167 30.3311 161.328 30.7077 161.649 31.0039C161.971 31.3001 162.411 31.4482 162.97 31.4482ZM176.376 16.8867V20.2637H178.725V22.9551H176.376V29.8105C176.376 30.3184 176.473 30.6823 176.668 30.9023C176.863 31.1224 177.235 31.2324 177.785 31.2324C178.191 31.2324 178.551 31.2028 178.864 31.1436V33.9238C178.145 34.1439 177.404 34.2539 176.643 34.2539C174.07 34.2539 172.758 32.9548 172.707 30.3564V22.9551H170.701V20.2637H172.707V16.8867H176.376Z" fill="white"/>
<path d="M26 47.6667C26 47.6667 43.3333 39 43.3333 26V10.8333L26 4.33334L8.66666 10.8333V26C8.66666 39 26 47.6667 26 47.6667Z" stroke="#9B99E0" stroke-width="7" stroke-linecap="round" stroke-linejoin="round"/>
<g clip-path="url(#clip0)">
<path d="M31.0869 27.6956C31.0869 27.9955 30.9678 28.283 30.7558 28.495C30.5438 28.707 30.2563 28.8261 29.9565 28.8261H23.1739L20.913 31.087V22.0435C20.913 21.7437 21.0321 21.4561 21.2441 21.2441C21.4561 21.0321 21.7436 20.913 22.0435 20.913H29.9565C30.2563 20.913 30.5438 21.0321 30.7558 21.2441C30.9678 21.4561 31.0869 21.7437 31.0869 22.0435V27.6956Z" stroke="white" stroke-width="2" stroke-linecap="round" stroke-linejoin="round"/>
</g>
<defs>
<clipPath id="clip0">
<rect width="13.5652" height="13.5652" fill="white" transform="translate(19.2174 19.2174)"/>
</clipPath>
</defs>
</svg>
