<svg width="188" height="57" viewBox="0 0 188 57" fill="none" xmlns="http://www.w3.org/2000/svg">
<rect width="188" height="57" rx="12" fill="#2E343B"/>
<path d="M64.2354 33.1504C64.2354 32.431 63.9814 31.8809 63.4736 31.5C62.9658 31.1107 62.0518 30.7044 60.7314 30.2812C59.4111 29.8496 58.3659 29.4264 57.5957 29.0117C55.4967 27.8776 54.4473 26.3499 54.4473 24.4287C54.4473 23.43 54.7266 22.5413 55.2852 21.7627C55.8522 20.9756 56.6605 20.362 57.71 19.9219C58.7679 19.4818 59.9528 19.2617 61.2646 19.2617C62.585 19.2617 63.7614 19.5029 64.7939 19.9854C65.8265 20.4593 66.6263 21.1322 67.1934 22.0039C67.7689 22.8757 68.0566 23.8659 68.0566 24.9746H64.248C64.248 24.1283 63.9814 23.4723 63.4482 23.0068C62.915 22.5329 62.166 22.2959 61.2012 22.2959C60.2702 22.2959 59.5465 22.4948 59.0303 22.8926C58.514 23.2819 58.2559 23.7982 58.2559 24.4414C58.2559 25.0423 58.5563 25.5459 59.1572 25.9521C59.7666 26.3584 60.6595 26.7393 61.8359 27.0947C64.0026 27.7464 65.5811 28.5547 66.5713 29.5195C67.5615 30.4844 68.0566 31.6862 68.0566 33.125C68.0566 34.7246 67.4515 35.9814 66.2412 36.8955C65.0309 37.8011 63.4017 38.2539 61.3535 38.2539C59.9316 38.2539 58.6367 37.9958 57.4688 37.4795C56.3008 36.9548 55.4079 36.2396 54.79 35.334C54.1807 34.4284 53.876 33.3789 53.876 32.1855H57.6973C57.6973 34.2253 58.916 35.2451 61.3535 35.2451C62.2591 35.2451 62.9658 35.0632 63.4736 34.6992C63.9814 34.3268 64.2354 33.8105 64.2354 33.1504ZM73.9854 25.7617C74.9587 24.5938 76.1816 24.0098 77.6543 24.0098C80.6335 24.0098 82.1442 25.7406 82.1865 29.2021V38H78.5176V29.3037C78.5176 28.5166 78.3483 27.9368 78.0098 27.5645C77.6712 27.1836 77.1084 26.9932 76.3213 26.9932C75.2464 26.9932 74.4678 27.4079 73.9854 28.2373V38H70.3164V18.5H73.9854V25.7617ZM88.8262 38H85.1445V24.2637H88.8262V38ZM84.9287 20.709C84.9287 20.1589 85.1107 19.7061 85.4746 19.3506C85.847 18.9951 86.3506 18.8174 86.9854 18.8174C87.6117 18.8174 88.111 18.9951 88.4834 19.3506C88.8558 19.7061 89.042 20.1589 89.042 20.709C89.042 21.2676 88.8516 21.7246 88.4707 22.0801C88.0983 22.4355 87.6032 22.6133 86.9854 22.6133C86.3675 22.6133 85.8682 22.4355 85.4873 22.0801C85.1149 21.7246 84.9287 21.2676 84.9287 20.709ZM98.1826 38.2539C96.1683 38.2539 94.5264 37.6361 93.2568 36.4004C91.9958 35.1647 91.3652 33.5186 91.3652 31.4619V31.1064C91.3652 29.7269 91.6318 28.4954 92.165 27.4121C92.6982 26.3203 93.4515 25.4824 94.4248 24.8984C95.4066 24.306 96.5238 24.0098 97.7764 24.0098C99.6553 24.0098 101.132 24.6022 102.207 25.7871C103.29 26.972 103.832 28.652 103.832 30.8271V32.3252H95.085C95.2035 33.2223 95.5589 33.9417 96.1514 34.4834C96.7523 35.0251 97.5098 35.2959 98.4238 35.2959C99.8372 35.2959 100.942 34.7839 101.737 33.7598L103.54 35.7783C102.99 36.557 102.245 37.1663 101.306 37.6064C100.366 38.0381 99.3252 38.2539 98.1826 38.2539ZM97.7637 26.9805C97.0358 26.9805 96.4434 27.2259 95.9863 27.7168C95.5378 28.2077 95.25 28.9102 95.123 29.8242H100.227V29.5322C100.21 28.7197 99.9896 28.0934 99.5664 27.6533C99.1432 27.2048 98.5423 26.9805 97.7637 26.9805ZM109.799 38H106.117V18.5H109.799V38ZM112.262 31.0303C112.262 28.889 112.74 27.1836 113.696 25.9141C114.661 24.6445 115.977 24.0098 117.645 24.0098C118.982 24.0098 120.086 24.5091 120.958 25.5078V18.5H124.64V38H121.326L121.148 36.54C120.234 37.6826 119.058 38.2539 117.619 38.2539C116.003 38.2539 114.703 37.6191 113.722 36.3496C112.748 35.0716 112.262 33.2985 112.262 31.0303ZM115.931 31.2969C115.931 32.5833 116.155 33.5693 116.604 34.2549C117.052 34.9404 117.704 35.2832 118.559 35.2832C119.693 35.2832 120.493 34.805 120.958 33.8486V28.4277C120.501 27.4714 119.71 26.9932 118.584 26.9932C116.815 26.9932 115.931 28.4277 115.931 31.2969Z" fill="#9B99E0"/>
<path d="M142.235 31.8428C142.091 33.8317 141.355 35.3975 140.026 36.54C138.706 37.6826 136.963 38.2539 134.796 38.2539C132.426 38.2539 130.56 37.4583 129.197 35.8672C127.843 34.2676 127.166 32.0755 127.166 29.291V28.1611C127.166 26.3838 127.479 24.818 128.105 23.4639C128.732 22.1097 129.625 21.0729 130.784 20.3535C131.952 19.6257 133.306 19.2617 134.847 19.2617C136.979 19.2617 138.698 19.833 140.001 20.9756C141.304 22.1182 142.058 23.722 142.261 25.7871H138.452C138.359 24.5938 138.025 23.7305 137.449 23.1973C136.882 22.6556 136.015 22.3848 134.847 22.3848C133.577 22.3848 132.625 22.8418 131.99 23.7559C131.364 24.6615 131.042 26.0706 131.025 27.9834V29.3799C131.025 31.3773 131.326 32.8372 131.927 33.7598C132.536 34.6823 133.493 35.1436 134.796 35.1436C135.972 35.1436 136.848 34.877 137.424 34.3438C138.008 33.8021 138.342 32.9684 138.427 31.8428H142.235ZM148.075 25.7617C149.049 24.5938 150.271 24.0098 151.744 24.0098C154.723 24.0098 156.234 25.7406 156.276 29.2021V38H152.607V29.3037C152.607 28.5166 152.438 27.9368 152.1 27.5645C151.761 27.1836 151.198 26.9932 150.411 26.9932C149.336 26.9932 148.558 27.4079 148.075 28.2373V38H144.406V18.5H148.075V25.7617ZM167.004 38C166.835 37.6699 166.712 37.2594 166.636 36.7686C165.747 37.7588 164.592 38.2539 163.17 38.2539C161.824 38.2539 160.707 37.8646 159.818 37.0859C158.938 36.3073 158.498 35.3255 158.498 34.1406C158.498 32.6849 159.035 31.5677 160.11 30.7891C161.194 30.0104 162.755 29.6169 164.795 29.6084H166.483V28.8213C166.483 28.1865 166.318 27.6787 165.988 27.2979C165.667 26.917 165.155 26.7266 164.452 26.7266C163.834 26.7266 163.348 26.8747 162.992 27.1709C162.645 27.4671 162.472 27.8734 162.472 28.3896H158.803C158.803 27.5941 159.048 26.8577 159.539 26.1807C160.03 25.5036 160.724 24.9746 161.621 24.5938C162.518 24.2044 163.525 24.0098 164.643 24.0098C166.335 24.0098 167.677 24.4372 168.667 25.292C169.666 26.1383 170.165 27.3317 170.165 28.8721V34.8262C170.174 36.1296 170.355 37.1156 170.711 37.7842V38H167.004ZM163.97 35.4482C164.511 35.4482 165.011 35.3298 165.468 35.0928C165.925 34.8473 166.263 34.5215 166.483 34.1152V31.7539H165.112C163.276 31.7539 162.298 32.3887 162.18 33.6582L162.167 33.874C162.167 34.3311 162.328 34.7077 162.649 35.0039C162.971 35.3001 163.411 35.4482 163.97 35.4482ZM177.376 20.8867V24.2637H179.725V26.9551H177.376V33.8105C177.376 34.3184 177.473 34.6823 177.668 34.9023C177.863 35.1224 178.235 35.2324 178.785 35.2324C179.191 35.2324 179.551 35.2028 179.864 35.1436V37.9238C179.145 38.1439 178.404 38.2539 177.643 38.2539C175.07 38.2539 173.758 36.9548 173.707 34.3564V26.9551H171.701V24.2637H173.707V20.8867H177.376Z" fill="white"/>
<path d="M27 50.6666C27 50.6666 44.3334 42 44.3334 29V13.8333L27 7.33331L9.66669 13.8333V29C9.66669 42 27 50.6666 27 50.6666Z" stroke="#9B99E0" stroke-width="7" stroke-linecap="round" stroke-linejoin="round"/>
<g clip-path="url(#clip0)">
<path d="M32.087 30.6957C32.087 30.9955 31.9679 31.283 31.7559 31.495C31.5439 31.707 31.2564 31.8261 30.9566 31.8261H24.174L21.9131 34.087V25.0435C21.9131 24.7437 22.0322 24.4562 22.2442 24.2442C22.4562 24.0322 22.7437 23.9131 23.0435 23.9131H30.9566C31.2564 23.9131 31.5439 24.0322 31.7559 24.2442C31.9679 24.4562 32.087 24.7437 32.087 25.0435V30.6957Z" stroke="white" stroke-width="2" stroke-linecap="round" stroke-linejoin="round"/>
</g>
<defs>
<clipPath id="clip0">
<rect width="13.5652" height="13.5652" fill="white" transform="translate(20.2174 22.2174)"/>
</clipPath>
</defs>
</svg>
